<?xml version="1.0" encoding="utf-8"?>
<!-- Generator: Adobe Illustrator 19.0.0, SVG Export Plug-In . SVG Version: 6.00 Build 0)  -->
<svg version="1.1" id="OBJECTS" xmlns="http://www.w3.org/2000/svg" xmlns:xlink="http://www.w3.org/1999/xlink" x="0px" y="0px"
	 viewBox="0 0 500 500" style="enable-background:new 0 0 500 500;" xml:space="preserve">
<style type="text/css">
	.st0{fill:#E9EBED;}
	.st1{fill:#353535;}
	.st2{fill:#F7EBE1;}
	.st3{fill:#7A3424;}
	.st4{fill:#BDA99E;}
	.st5{fill:#554541;}
	.st6{fill:#401B13;}
	.st7{fill:#E8D0C3;}
	.st8{fill:#302725;}
	.st9{fill:#423633;}
	.st10{fill:#241D1C;}
	.st11{opacity:0.25;fill:#E8D0C3;}
</style>
<g>
	<ellipse class="st0" cx="235.6" cy="323.1" rx="155.1" ry="13.2"/>
	<g>
		<g>
			<path class="st1" d="M156.7,263.8c-34.2-8-48.3-27.9-42.2-50.4l0,0c2.6-9.5,7.6-15.6,7.6-15.6l-20.5,20.3l0.2-0.1
				c-1.6,1.8-3.2,4-4.5,6.5c-13.8,26.4-1,51.2,38.2,60.4c48,11.3,60,55.8,60,65l27.8-25.9C223.4,314.9,204.7,275.1,156.7,263.8z"/>
			<g>
				<g>
					<path class="st2" d="M199.6,330.4c0.9,2.7,1.4,4.5,2.1,7.2l-1.9,1.4c-0.7-2.7-1.3-5.1-2.1-7.7L199.6,330.4z"/>
				</g>
				<g>
					<path class="st2" d="M195.4,320.6c0.3,0.6,0.7,1.2,1,1.9l0.9,1.9l0.8,1.9l0.7,1.8l-2,0.9l-0.7-1.9l-0.8-1.9l-0.9-1.8
						c-0.3-0.6-0.6-1.2-0.9-1.8L195.4,320.6z"/>
				</g>
				<g>
					<path class="st2" d="M189.7,311.7c0.9,1.1,1.7,2.3,2.5,3.4c0.4,0.6,0.8,1.2,1.1,1.8c0.4,0.6,0.7,1.2,1.1,1.8l-1.9,1.1
						c-0.3-0.6-0.7-1.2-1-1.7c-0.4-0.6-0.7-1.2-1.1-1.7c-0.8-1.1-1.5-2.2-2.4-3.3L189.7,311.7z"/>
				</g>
				<g>
					<path class="st2" d="M182.7,303.8c1,1,1.9,2,2.8,3.1l1.4,1.6l1.3,1.6l-1.6,1.3l-1.3-1.6l-1.4-1.5c-0.9-1-1.9-2-2.8-3
						L182.7,303.8z"/>
				</g>
				<g>
					<path class="st2" d="M175,296.6c0.5,0.4,1.1,0.9,1.6,1.4c0.5,0.5,1.1,0.9,1.6,1.4c1,1,2,1.9,3,2.9l-1.5,1.5c-1-1-2-1.9-2.9-2.9
						c-0.5-0.5-1-0.9-1.5-1.4c-0.5-0.5-1-0.9-1.5-1.4L175,296.6z"/>
				</g>
				<g>
					<path class="st2" d="M166.5,290.3c1.2,0.8,2.4,1.5,3.5,2.3c1.2,0.8,2.2,1.7,3.4,2.5l-1.3,1.6c-1.1-0.8-2.1-1.7-3.3-2.5
						c-1.1-0.8-2.2-1.6-3.4-2.3L166.5,290.3z"/>
				</g>
				<g>
					<path class="st2" d="M157.2,285.3c1.3,0.5,2.5,1.2,3.8,1.8c1.2,0.7,2.5,1.3,3.7,2l-1,1.7c-1.2-0.7-2.4-1.3-3.6-2
						c-1.2-0.6-2.4-1.2-3.7-1.8L157.2,285.3z"/>
				</g>
				<g>
					<path class="st2" d="M147.4,281.5c1.3,0.4,2.6,0.9,3.9,1.4c1.3,0.5,2.6,1,3.9,1.5l-0.7,1.7c-1.3-0.5-2.5-1.1-3.8-1.5
						c-1.3-0.5-2.6-1-3.9-1.4L147.4,281.5z"/>
				</g>
				<g>
					<path class="st2" d="M137.4,278.4c1.3,0.4,2.6,0.8,3.9,1.2l4,1.2l-0.5,1.7l-3.9-1.2c-1.3-0.4-2.6-0.8-4-1.3L137.4,278.4z"/>
				</g>
				<g>
					<path class="st2" d="M127.6,275.1c1.3,0.5,2.6,1,3.9,1.4c1.3,0.4,2.6,0.9,3.9,1.3l-0.5,1.6c-1.3-0.4-2.6-0.9-3.9-1.4
						c-1.3-0.5-2.6-0.9-3.9-1.5L127.6,275.1z"/>
				</g>
				<g>
					<path class="st2" d="M118.1,271c0.6,0.3,1.2,0.6,1.9,0.9l1.9,0.9c0.6,0.3,1.3,0.5,1.9,0.8l1.9,0.8l-0.6,1.5l-1.9-0.8
						c-0.6-0.3-1.3-0.5-1.9-0.8l-1.9-0.9c-0.6-0.3-1.3-0.6-1.9-0.9L118.1,271z"/>
				</g>
				<g>
					<path class="st2" d="M109.3,265.7c0.5,0.4,1.1,0.8,1.7,1.2c0.6,0.4,1.1,0.8,1.7,1.1c1.2,0.7,2.3,1.4,3.6,2l-0.7,1.3
						c-1.2-0.6-2.4-1.4-3.6-2.1c-0.6-0.4-1.2-0.8-1.7-1.2c-0.6-0.4-1.2-0.8-1.7-1.2L109.3,265.7z"/>
				</g>
				<g>
					<path class="st2" d="M102.2,258.5c0.4,0.5,0.8,1.1,1.2,1.6l1.3,1.5c0.4,0.5,1,1,1.4,1.4c0.5,0.4,1,0.9,1.5,1.4l-0.9,1
						c-0.6-0.4-1-1-1.6-1.4c-0.5-0.5-1-0.9-1.5-1.5l-1.4-1.6c-0.4-0.6-0.8-1.2-1.2-1.7L102.2,258.5z"/>
				</g>
				<g>
					<path class="st2" d="M98.4,249.2c0.1,0.7,0.3,1.3,0.4,2c0.2,0.6,0.3,1.3,0.6,1.9l0.7,1.9c0.2,0.6,0.6,1.2,0.9,1.8l-1.1,0.6
						c-0.3-0.6-0.7-1.2-0.9-1.9l-0.8-2c-0.3-0.7-0.4-1.4-0.6-2c-0.2-0.7-0.3-1.4-0.4-2.1L98.4,249.2z"/>
				</g>
				<g>
					<path class="st2" d="M97.9,239c-0.1,0.7-0.1,1.4-0.1,2c0,0.7,0,1.4,0,2c0,0.7,0,1.4,0.1,2l0.2,2l-1.1,0.1l-0.2-2.1
						c-0.1-0.7,0-1.4,0-2.1c0-0.7,0-1.4,0.1-2.1c0.1-0.7,0.1-1.4,0.2-2.1L97.9,239z"/>
				</g>
				<g>
					<path class="st2" d="M100.2,228.9c-0.2,0.7-0.5,1.3-0.6,1.9c-0.2,0.7-0.4,1.3-0.5,2l-0.5,2l-0.3,2l-0.9-0.1l0.4-2.1l0.5-2
						c0.2-0.7,0.4-1.3,0.6-2c0.2-0.7,0.5-1.3,0.7-2L100.2,228.9z"/>
				</g>
				<g>
					<path class="st2" d="M104.7,219.6c-0.7,1.2-1.4,2.4-2,3.6c-0.6,1.2-1.2,2.5-1.7,3.7l-0.5-0.2c0.6-1.3,1.2-2.5,1.9-3.7
						c0.7-1.2,1.4-2.4,2.2-3.5L104.7,219.6z"/>
				</g>
			</g>
			<g>
				<g>
					<path class="st2" d="M216.9,314.3c0.3,0.6,0.7,1.5,1,2.2c0.3,0.6,0.5,1.3,0.8,2c0.5,1.3,1,2.7,1.5,4l-1.8,1.4
						c-0.4-1.3-1.2-3.3-1.7-4.6c-0.3-0.6-0.5-1.3-0.8-1.9c-0.3-0.6-0.5-1.3-0.8-1.9L216.9,314.3z"/>
				</g>
				<g>
					<path class="st2" d="M211.7,305.2c0.4,0.6,0.8,1.2,1.1,1.8c0.4,0.6,0.7,1.2,1.1,1.8c0.7,1.2,1.3,2.3,1.9,3.6l-1.7,1
						c-0.6-1.2-1.3-2.5-1.9-3.7c-0.3-0.6-0.7-1.2-1-1.8c-0.3-0.6-0.7-1.2-1.1-1.8L211.7,305.2z"/>
				</g>
				<g>
					<path class="st2" d="M205.4,296.6c0.9,1.1,1.8,2.2,2.7,3.3c0.4,0.6,0.8,1.1,1.3,1.7c0.4,0.6,0.8,1.2,1.2,1.7l-1.5,1
						c-0.4-0.6-0.8-1.2-1.2-1.7c-0.4-0.6-0.8-1.1-1.2-1.7c-0.8-1.1-1.7-2.2-2.6-3.3L205.4,296.6z"/>
				</g>
				<g>
					<path class="st2" d="M198,288.8c1,1,2,1.9,3,3c0.5,0.5,1,1,1.5,1.5c0.5,0.5,1,1,1.4,1.6l-1.3,1.1c-0.4-0.5-0.9-1-1.4-1.6
						c-0.5-0.5-0.9-1-1.4-1.5c-0.9-1-2-2-2.9-3L198,288.8z"/>
				</g>
				<g>
					<path class="st2" d="M189.9,281.9c0.6,0.4,1.1,0.9,1.7,1.3c0.5,0.4,1.1,0.9,1.6,1.3c1.1,0.9,2.1,1.8,3.2,2.8l-1.1,1.2
						c-1-1-2.1-1.9-3.1-2.8c-0.5-0.5-1.1-0.9-1.6-1.3c-0.5-0.4-1.1-0.9-1.6-1.3L189.9,281.9z"/>
				</g>
				<g>
					<path class="st2" d="M181,276c0.6,0.3,1.2,0.7,1.8,1.1c0.6,0.4,1.2,0.7,1.8,1.1c0.6,0.4,1.2,0.8,1.8,1.2l1.7,1.2l-0.9,1.2
						l-1.7-1.2c-0.6-0.4-1.2-0.8-1.7-1.2c-0.6-0.4-1.2-0.8-1.8-1.1c-0.6-0.4-1.2-0.7-1.8-1.1L181,276z"/>
				</g>
				<g>
					<path class="st2" d="M171.3,271.5l2,0.8c0.7,0.3,1.3,0.6,1.9,0.8c1.3,0.6,2.6,1.2,3.8,1.8l-0.6,1.2c-1.2-0.6-2.5-1.3-3.7-1.8
						c-0.6-0.3-1.3-0.6-1.9-0.9l-1.9-0.8L171.3,271.5z"/>
				</g>
				<g>
					<path class="st2" d="M161.3,268c1.3,0.4,2.7,0.9,4,1.3c1.3,0.5,2.7,0.9,4,1.4l-0.4,1.1c-1.3-0.5-2.6-1-3.9-1.4
						c-1.3-0.4-2.6-0.9-4-1.3L161.3,268z"/>
				</g>
				<g>
					<path class="st2" d="M151.2,264.9c1.3,0.4,2.7,0.9,4,1.3l4,1.2l-0.3,1l-4-1.3c-1.3-0.4-2.7-0.9-4-1.3L151.2,264.9z"/>
				</g>
				<g>
					<path class="st2" d="M141.3,261.4c1.3,0.5,2.6,1,3.9,1.5c1.3,0.5,2.6,0.9,4,1.4l-0.3,0.9c-1.3-0.5-2.6-0.9-4-1.4
						c-1.3-0.5-2.6-1-3.9-1.5L141.3,261.4z"/>
				</g>
				<g>
					<path class="st2" d="M131.7,257l1.8,1c0.6,0.3,1.3,0.6,1.9,0.9l1.9,0.9c0.6,0.3,1.3,0.5,1.9,0.8l-0.3,0.8
						c-0.6-0.3-1.3-0.5-1.9-0.8l-1.9-0.9c-0.6-0.3-1.3-0.6-1.9-0.9l-1.9-1L131.7,257z"/>
				</g>
				<g>
					<path class="st2" d="M123,251.2l1.6,1.3c0.6,0.4,1.1,0.8,1.7,1.2c0.6,0.4,1.1,0.8,1.7,1.2l1.8,1.1l-0.4,0.6l-1.8-1.1
						c-0.6-0.4-1.2-0.8-1.7-1.2c-0.6-0.4-1.2-0.8-1.7-1.2l-1.6-1.3L123,251.2z"/>
				</g>
				<g>
					<path class="st2" d="M115.9,243.5l1.2,1.7c0.4,0.6,0.9,1.1,1.3,1.6c0.5,0.5,0.9,1.1,1.4,1.6l1.5,1.4l-0.4,0.5l-1.5-1.5
						c-0.5-0.5-0.9-1.1-1.4-1.6c-0.5-0.5-0.9-1.1-1.3-1.6l-1.2-1.7L115.9,243.5z"/>
				</g>
				<g>
					<path class="st2" d="M111.7,233.9l0.6,2c0.2,0.7,0.4,1.3,0.7,2l0.8,1.9c0.2,0.7,0.7,1.2,1,1.8l-0.5,0.3c-0.3-0.6-0.7-1.2-1-1.9
						l-0.8-1.9c-0.3-0.6-0.5-1.3-0.7-2l-0.6-2L111.7,233.9z"/>
				</g>
				<g>
					<path class="st2" d="M110.2,223.5c0,0.7,0,1.4,0,2.1c0,0.7,0.1,1.4,0.2,2.1c0.2,1.4,0.4,2.7,0.7,4.1l-0.5,0.1
						c-0.3-1.4-0.5-2.8-0.7-4.2c-0.1-0.7-0.2-1.4-0.2-2.1c0-0.7-0.1-1.4-0.1-2.1L110.2,223.5z"/>
				</g>
				<g>
					<path class="st2" d="M112.5,213.3c-0.4,1.4-0.9,2.7-1.3,4c-0.2,0.7-0.4,1.3-0.5,2c-0.1,0.7-0.3,1.4-0.3,2l-0.5-0.1
						c0.1-0.7,0.2-1.4,0.3-2.1c0.1-0.7,0.3-1.4,0.5-2.1c0.4-1.4,0.8-2.7,1.2-4L112.5,213.3z"/>
				</g>
			</g>
			<g>
				<path class="st1" d="M166.4,191.6c0,0-34-14.7-47.8,11.8c-1.1,2.2-2.1,4.3-2.9,6.4c15.5-4.8,32.7,4,32.7,4L166.4,191.6z"/>
				<g>
					<g>
						<g>
							<path class="st2" d="M120.6,205.4c-0.6,0.1-1.3,0.3-1.9,0.4l-1.9,0.5c-0.6,0.2-1.2,0.4-1.9,0.6c-0.6,0.2-1.2,0.4-1.8,0.7
								l-0.1-0.1c0.6-0.3,1.2-0.5,1.8-0.8c0.6-0.3,1.2-0.5,1.8-0.7l1.9-0.6c0.6-0.2,1.3-0.3,1.9-0.5L120.6,205.4z"/>
						</g>
						<g>
							<path class="st2" d="M130.3,204.8c-0.6,0-1.3-0.1-1.9-0.1l-1.9,0c-0.6,0-1.3,0.1-1.9,0.1c-0.6,0-1.3,0.1-1.9,0.2l-0.1-0.7
								c0.6-0.1,1.3-0.2,2-0.3c0.7-0.1,1.3-0.2,2-0.2l2-0.1c0.7-0.1,1.3,0,2,0L130.3,204.8z"/>
						</g>
						<g>
							<path class="st2" d="M139.9,206.4c-0.6-0.2-1.2-0.4-1.9-0.5l-1.9-0.4c-0.6-0.2-1.3-0.2-1.9-0.3l-1.9-0.3l0.1-1.2l2,0.2
								c0.7,0.1,1.3,0.1,2,0.2l2,0.3c0.7,0.1,1.3,0.2,1.9,0.4L139.9,206.4z"/>
						</g>
						<g>
							<path class="st2" d="M148.8,210.2l-1.7-0.9c-0.6-0.3-1.1-0.6-1.7-0.8l-1.8-0.7c-0.6-0.2-1.2-0.5-1.8-0.7l0.5-1.7
								c0.7,0.1,1.3,0.4,1.9,0.6l1.9,0.7c0.6,0.2,1.2,0.5,1.8,0.8l1.8,0.8L148.8,210.2z"/>
						</g>
					</g>
				</g>
				<g>
					<g>
						<g>
							<g>
								<path class="st2" d="M131.2,192.7c-0.6,0.2-1.2,0.4-1.8,0.6c-0.6,0.2-1.2,0.5-1.8,0.7c-0.6,0.3-1.2,0.5-1.8,0.8
									c-0.6,0.3-1.2,0.6-1.7,0.9l0,0c0.5-0.3,1.1-0.7,1.7-1c0.6-0.3,1.1-0.6,1.7-0.9c0.6-0.3,1.2-0.5,1.8-0.8
									c0.6-0.3,1.2-0.5,1.8-0.7L131.2,192.7z"/>
							</g>
							<g>
								<path class="st2" d="M140.6,190.7c-0.6,0-1.3,0.1-1.9,0.2l-1.9,0.3l-1.9,0.4c-0.6,0.1-1.2,0.3-1.9,0.5l-0.2-0.6
									c0.6-0.2,1.2-0.4,1.9-0.6l1.9-0.5l1.9-0.4c0.6-0.1,1.3-0.3,1.9-0.3L140.6,190.7z"/>
							</g>
							<g>
								<path class="st2" d="M150.2,190.9c-0.6-0.1-1.3-0.2-1.9-0.2l-1.9-0.1c-0.6-0.1-1.3,0-1.9,0c-0.6,0-1.3,0-1.9,0l-0.1-1.2
									c0.7-0.1,1.3-0.1,2-0.1c0.7,0,1.3-0.1,2-0.1l2,0c0.7,0,1.3,0,2,0.1L150.2,190.9z"/>
							</g>
							<g>
								<path class="st2" d="M159.4,193.3l-1.8-0.6c-0.6-0.2-1.2-0.4-1.8-0.6l-1.8-0.5c-0.6-0.2-1.2-0.3-1.9-0.4l0.3-1.7
									c0.7,0,1.3,0.2,1.9,0.3l1.9,0.4c0.7,0.1,1.3,0.3,1.9,0.5l1.9,0.6L159.4,193.3z"/>
							</g>
						</g>
					</g>
				</g>
			</g>
		</g>
		<g>
			<path class="st1" d="M299.6,166.3C276.9,189,253.3,195,241,181.8l0,0c-5.2-5.5-5.8-11.9-5.8-11.9l-1.2,25.3l0.1-0.2
				c0.1,2.2,0.5,4.5,1.4,6.7c10,23.8,38.9,17.8,66.8-14.2c24.7-28.3,48.6-23.4,52.6-21.1l-4.8-20.3
				C346.3,143.9,323.6,142.3,299.6,166.3z"/>
			<g>
				<g>
					<path class="st2" d="M347.3,159.4c1.4,0.2,2.3,0.4,3.6,0.7l0.2,1.3c-1.3-0.3-2.5-0.6-3.9-0.8L347.3,159.4z"/>
				</g>
				<g>
					<path class="st2" d="M341.9,159.1c0.4,0,0.7,0,1.1,0l1.1,0l1.1,0.1l1,0.1l-0.1,1.3l-1-0.1l-1-0.1l-1.1,0c-0.4,0-0.7,0-1.1,0
						L341.9,159.1z"/>
				</g>
				<g>
					<path class="st2" d="M336.2,160c0.8-0.2,1.5-0.3,2.3-0.5c0.4-0.1,0.8-0.1,1.1-0.2c0.4-0.1,0.7-0.1,1.1-0.1l0,1.3
						c-0.4,0-0.7,0.1-1.1,0.1c-0.4,0.1-0.7,0.1-1.1,0.2c-0.7,0.1-1.5,0.3-2.2,0.4L336.2,160z"/>
				</g>
				<g>
					<path class="st2" d="M330.4,161.7c0.8-0.3,1.6-0.6,2.3-0.8l1.2-0.4l1.2-0.3l0.2,1.3l-1.1,0.3l-1.1,0.4
						c-0.8,0.2-1.5,0.5-2.3,0.8L330.4,161.7z"/>
				</g>
				<g>
					<path class="st2" d="M324.3,164.2c0.4-0.2,0.8-0.4,1.2-0.6c0.4-0.2,0.8-0.4,1.2-0.5c0.8-0.3,1.6-0.7,2.4-1l0.3,1.2
						c-0.8,0.3-1.6,0.6-2.4,0.9c-0.4,0.2-0.8,0.3-1.2,0.5c-0.4,0.2-0.8,0.4-1.2,0.5L324.3,164.2z"/>
				</g>
				<g>
					<path class="st2" d="M318.1,167.7c0.8-0.5,1.6-1,2.5-1.5c0.8-0.5,1.6-0.9,2.5-1.3l0.4,1.2c-0.8,0.4-1.6,0.8-2.4,1.3
						c-0.8,0.5-1.6,1-2.4,1.5L318.1,167.7z"/>
				</g>
				<g>
					<path class="st2" d="M311.9,172.3c0.8-0.7,1.7-1.3,2.5-2c0.8-0.6,1.6-1.2,2.5-1.8l0.5,1.1c-0.8,0.5-1.6,1.1-2.4,1.7
						c-0.8,0.6-1.6,1.2-2.4,1.9L311.9,172.3z"/>
				</g>
				<g>
					<path class="st2" d="M305.6,177.9c0.8-0.8,1.6-1.6,2.5-2.3c0.8-0.8,1.7-1.5,2.5-2.2l0.6,1c-0.8,0.7-1.6,1.4-2.4,2.2
						c-0.8,0.7-1.6,1.5-2.4,2.3L305.6,177.9z"/>
				</g>
				<g>
					<path class="st2" d="M299.3,184.2c0.9-0.9,1.7-1.7,2.6-2.6l2.5-2.5l0.7,0.9l-2.5,2.5c-0.9,0.9-1.7,1.7-2.6,2.6L299.3,184.2z"/>
				</g>
				<g>
					<path class="st2" d="M292.3,190.9c1-0.9,1.9-1.8,2.9-2.7c0.9-0.9,1.8-1.7,2.7-2.6l0.7,0.9c-0.9,0.9-1.8,1.8-2.8,2.6
						c-0.9,0.9-1.9,1.8-2.9,2.7L292.3,190.9z"/>
				</g>
				<g>
					<path class="st2" d="M284.5,197.6c0.6-0.4,1.1-0.9,1.6-1.3l1.6-1.3c0.5-0.4,1-0.9,1.5-1.3l1.5-1.3l0.6,0.9l-1.5,1.3
						c-0.5,0.4-1,0.9-1.6,1.4l-1.6,1.3c-0.5,0.4-1.1,0.9-1.7,1.3L284.5,197.6z"/>
				</g>
				<g>
					<path class="st2" d="M275.6,203.8c0.6-0.3,1.2-0.8,1.9-1.2c0.6-0.4,1.2-0.8,1.8-1.2c1.2-0.9,2.4-1.6,3.5-2.5l0.5,1
						c-1.2,0.9-2.4,1.7-3.6,2.6c-0.6,0.4-1.2,0.8-1.9,1.2c-0.6,0.4-1.3,0.8-1.9,1.2L275.6,203.8z"/>
				</g>
				<g>
					<path class="st2" d="M265.7,208.3c0.7-0.2,1.3-0.4,2-0.6l2-0.8c0.7-0.2,1.3-0.6,2-0.9c0.7-0.3,1.3-0.6,1.9-1l0.2,1.2
						c-0.7,0.4-1.3,0.7-2,1c-0.7,0.3-1.4,0.7-2.1,0.9l-2.1,0.8c-0.7,0.3-1.4,0.4-2.1,0.6L265.7,208.3z"/>
				</g>
				<g>
					<path class="st2" d="M256,209c0.6,0.1,1.2,0.2,1.8,0.2c0.6,0,1.2,0.1,1.9,0.1l1.9-0.1c0.6,0,1.3-0.2,2-0.3l-0.3,1.3
						c-0.7,0.1-1.4,0.3-2.1,0.3l-2.1,0.1c-0.7,0.1-1.3-0.1-2-0.1c-0.7,0-1.3-0.1-1.9-0.2L256,209z"/>
				</g>
				<g>
					<path class="st2" d="M247.6,206.1c0.5,0.3,1,0.5,1.5,0.8c0.5,0.3,1,0.5,1.6,0.7c0.6,0.2,1.1,0.5,1.7,0.6l1.7,0.5l-0.8,1.2
						l-1.8-0.5c-0.6-0.2-1.1-0.4-1.7-0.6c-0.6-0.2-1.1-0.5-1.6-0.8c-0.5-0.3-1.1-0.5-1.5-0.9L247.6,206.1z"/>
				</g>
				<g>
					<path class="st2" d="M241.5,200.5c0.3,0.4,0.7,0.9,1,1.3c0.4,0.4,0.7,0.8,1.1,1.2l1.2,1.1l1.3,1l-0.8,0.9l-1.3-1.1l-1.2-1.2
						c-0.4-0.4-0.7-0.9-1.1-1.3c-0.4-0.4-0.6-0.9-1-1.4L241.5,200.5z"/>
				</g>
				<g>
					<path class="st2" d="M237.8,192.9c0.4,1.1,0.7,2.2,1.2,3.2c0.4,1,1,2,1.5,3l-0.6,0.4c-0.5-1-1-2-1.4-3.1
						c-0.4-1.1-0.7-2.2-0.9-3.3L237.8,192.9z"/>
				</g>
			</g>
			<g>
				<g>
					<path class="st2" d="M344.5,146.8c0.3,0,0.8,0,1.2,0.1c0.3,0,0.7,0.1,1,0.1c0.7,0.1,1.4,0.2,2,0.3l0.2,1.2
						c-0.6-0.1-1.7-0.3-2.3-0.4c-0.3,0-0.7-0.1-1-0.1c-0.3,0-0.7-0.1-1-0.1L344.5,146.8z"/>
				</g>
				<g>
					<path class="st2" d="M339.3,146.9c0.4,0,0.7-0.1,1.1-0.1c0.4,0,0.7,0,1.1-0.1c0.7,0,1.3,0,2,0l0,1.1c-0.7,0-1.4,0-2.1,0
						c-0.3,0-0.7,0-1.1,0c-0.4,0-0.7,0-1.1,0.1L339.3,146.9z"/>
				</g>
				<g>
					<path class="st2" d="M333.7,147.7c0.7-0.2,1.5-0.3,2.2-0.4c0.4-0.1,0.7-0.1,1.1-0.2c0.4-0.1,0.7-0.1,1.1-0.1l0.1,1
						c-0.4,0-0.7,0.1-1.1,0.1c-0.4,0.1-0.7,0.1-1.1,0.2c-0.7,0.1-1.5,0.3-2.2,0.4L333.7,147.7z"/>
				</g>
				<g>
					<path class="st2" d="M328,149.4c0.8-0.3,1.5-0.5,2.3-0.8c0.4-0.1,0.8-0.2,1.1-0.3c0.4-0.1,0.8-0.2,1.1-0.3l0.1,1
						c-0.4,0.1-0.7,0.2-1.1,0.3c-0.4,0.1-0.7,0.2-1.1,0.3c-0.8,0.2-1.5,0.5-2.3,0.7L328,149.4z"/>
				</g>
				<g>
					<path class="st2" d="M322,151.8c0.4-0.2,0.8-0.4,1.2-0.5c0.4-0.2,0.8-0.3,1.2-0.5c0.8-0.3,1.6-0.6,2.3-0.9l0.2,0.9
						c-0.8,0.3-1.5,0.6-2.3,0.9c-0.4,0.2-0.8,0.3-1.2,0.5c-0.4,0.2-0.8,0.3-1.2,0.5L322,151.8z"/>
				</g>
				<g>
					<path class="st2" d="M316,155.1c0.4-0.3,0.8-0.5,1.2-0.7c0.4-0.2,0.8-0.5,1.2-0.7c0.4-0.2,0.8-0.5,1.2-0.7l1.2-0.6l0.3,0.8
						l-1.2,0.6c-0.4,0.2-0.8,0.4-1.2,0.6c-0.4,0.2-0.8,0.4-1.2,0.7c-0.4,0.2-0.8,0.5-1.2,0.7L316,155.1z"/>
				</g>
				<g>
					<path class="st2" d="M310,159.4l1.2-0.9c0.4-0.3,0.8-0.6,1.2-0.9c0.8-0.6,1.6-1.1,2.4-1.7l0.4,0.7c-0.8,0.5-1.6,1.1-2.4,1.6
						c-0.4,0.3-0.8,0.6-1.2,0.9l-1.2,0.9L310,159.4z"/>
				</g>
				<g>
					<path class="st2" d="M304,164.6c0.8-0.7,1.6-1.4,2.4-2.1c0.8-0.7,1.6-1.4,2.4-2l0.4,0.6c-0.8,0.6-1.6,1.3-2.4,2
						c-0.8,0.7-1.6,1.4-2.4,2.1L304,164.6z"/>
				</g>
				<g>
					<path class="st2" d="M297.7,170.3c0.9-0.8,1.7-1.5,2.6-2.3l2.5-2.3l0.4,0.5l-2.5,2.3c-0.8,0.8-1.7,1.5-2.6,2.3L297.7,170.3z"/>
				</g>
				<g>
					<path class="st2" d="M290.8,176.2c1-0.8,1.9-1.6,2.8-2.4c0.9-0.8,1.8-1.6,2.7-2.3l0.4,0.5c-0.9,0.8-1.8,1.6-2.7,2.3
						c-1,0.8-1.9,1.6-2.9,2.4L290.8,176.2z"/>
				</g>
				<g>
					<path class="st2" d="M283,182.1l1.6-1.1c0.5-0.4,1.1-0.8,1.6-1.2l1.6-1.2c0.5-0.4,1-0.8,1.5-1.2l0.3,0.5
						c-0.5,0.4-1,0.8-1.5,1.2l-1.6,1.2c-0.5,0.4-1.1,0.8-1.6,1.2l-1.7,1.1L283,182.1z"/>
				</g>
				<g>
					<path class="st2" d="M274,187.2l1.9-0.9c0.6-0.3,1.2-0.7,1.8-1c0.6-0.3,1.2-0.6,1.8-1l1.7-1.1l0.2,0.5l-1.8,1.1
						c-0.6,0.4-1.2,0.7-1.8,1c-0.6,0.3-1.2,0.7-1.8,1l-1.9,0.9L274,187.2z"/>
				</g>
				<g>
					<path class="st2" d="M264.2,190.7l2-0.5c0.7-0.1,1.3-0.4,2-0.6c0.7-0.2,1.3-0.4,2-0.7l1.9-0.8l0,0.5l-2,0.8
						c-0.7,0.3-1.3,0.4-2,0.7c-0.7,0.2-1.4,0.5-2,0.6l-2,0.5L264.2,190.7z"/>
				</g>
				<g>
					<path class="st2" d="M254.3,191.3l1.9,0.1c0.6,0,1.3,0.1,1.9,0l2-0.1c0.6,0,1.3-0.2,2-0.3l-0.1,0.5c-0.7,0.1-1.4,0.2-2,0.2
						l-2,0.1c-0.7,0.1-1.3,0-2,0l-1.9-0.1L254.3,191.3z"/>
				</g>
				<g>
					<path class="st2" d="M245.3,189.1c0.5,0.3,1.1,0.5,1.6,0.7c0.6,0.2,1.2,0.4,1.7,0.5c1.2,0.3,2.4,0.5,3.6,0.7l-0.3,0.4
						c-1.3-0.2-2.5-0.4-3.7-0.7c-0.6-0.2-1.2-0.3-1.8-0.5c-0.6-0.2-1.1-0.4-1.7-0.7L245.3,189.1z"/>
				</g>
				<g>
					<path class="st2" d="M239.3,183.6c0.7,0.8,1.3,1.7,2,2.5c0.4,0.4,0.7,0.8,1.1,1.2c0.4,0.4,0.8,0.7,1.3,1l-0.4,0.4
						c-0.5-0.3-0.9-0.6-1.4-1c-0.4-0.4-0.8-0.8-1.2-1.2c-0.7-0.8-1.4-1.7-2.2-2.5L239.3,183.6z"/>
				</g>
			</g>
		</g>
	</g>
	<g>
		<path class="st3" d="M168,104.3c-11.3,14.8-8.6,32.4-7.6,37.1c0.2,0.8,0.2,1.7,0,2.5l-2.6,12.5c-0.7,3.4-4.1,5.5-7.5,4.6l-8.9-2.4
			c-2.2-0.6-3.9-2.4-4.4-4.6c-1.6-8.1-3.1-27.7,16.6-42C157.6,109.1,162.3,106.5,168,104.3z"/>
		<g>
			<g>
				<g>
					<path class="st4" d="M347.3,204.5l-30.2,104.1c-0.5,1.8-2.4,2.8-4.2,2.3L147,262.8c-1.8-0.5-2.8-2.4-2.3-4.2L173,161
						c0.5-1.8,2.4-2.8,4.2-2.3l4.2,1.2l18.9,5.5l14,4.1l25.7,7.5l0.6,0.2c1.8,0.5,3.7-0.5,4.2-2.3c0.5-1.8,2.4-2.8,4.2-2.3
						l95.9,27.8C346.8,200.9,347.8,202.7,347.3,204.5z"/>
					<path class="st5" d="M339.5,231.4l-22.4,77.2c-0.5,1.8-2.4,2.8-4.2,2.3L147,262.8c-1.8-0.5-2.8-2.4-2.3-4.2l22.4-77.2
						L339.5,231.4z"/>
					
						<rect x="176.6" y="273.8" transform="matrix(0.9604 0.2786 -0.2786 0.9604 88.0608 -56.6137)" class="st4" width="133.3" height="15.3"/>
					<path class="st6" d="M158.2,183.9l-2.6-11.1c-0.5-2.2,0.9-4.3,3.1-4.7l0,0c2.1-0.4,4.1,1,4.5,3l2.6,12.1L158.2,183.9z"/>
					<path class="st6" d="M346.9,238.6l8.1-7.9c1.6-1.5,1.5-4.1-0.1-5.6l0,0c-1.5-1.4-3.9-1.4-5.4,0.1l-8.6,8.8L346.9,238.6z"/>
					
						<rect x="181.3" y="157" transform="matrix(0.9604 0.2786 -0.2786 0.9604 52.6127 -46.8661)" class="st4" width="19.7" height="9.3"/>
					<polygon class="st5" points="200.8,163.8 200.3,165.4 181.4,159.9 181.9,158.3 					"/>
					
						<rect x="214.4" y="166.2" transform="matrix(-0.9604 -0.2786 0.2786 -0.9604 398.8833 398.979)" class="st4" width="26.8" height="9.9"/>
					<polygon class="st5" points="240.5,175.4 240.1,176.9 214.3,169.5 214.8,167.9 					"/>
					<circle class="st7" cx="260.3" cy="238.7" r="41.7"/>
					<path class="st4" d="M250,274.1c-19.5-5.7-30.8-26.2-25.1-45.7c5.7-19.5,26.2-30.8,45.7-25.1c19.5,5.7,30.8,26.2,25.1,45.7
						C290,268.5,269.5,279.8,250,274.1z"/>
					<path class="st8" d="M250.8,271.5c-18.1-5.3-28.6-24.3-23.3-42.4c5.3-18.1,24.3-28.6,42.4-23.3c18.1,5.3,28.6,24.3,23.3,42.4
						C287.9,266.3,268.9,276.8,250.8,271.5z"/>
					<path class="st9" d="M254.1,260c-11.8-3.4-18.6-15.8-15.1-27.5c3.4-11.8,15.8-18.6,27.5-15.2c11.8,3.4,18.6,15.8,15.1,27.5
						C278.2,256.7,265.9,263.5,254.1,260z"/>
					<path class="st10" d="M256,253.3c-8.1-2.3-12.7-10.8-10.4-18.9c2.3-8.1,10.8-12.7,18.9-10.4c8.1,2.3,12.7,10.8,10.4,18.9
						C272.6,251,264.1,255.7,256,253.3z"/>
					<circle class="st11" cx="252.1" cy="226.5" r="4"/>
					<circle class="st11" cx="268" cy="252.5" r="9.7"/>
					
						<rect x="307.4" y="200.3" transform="matrix(0.9604 0.2786 -0.2786 0.9604 71.1246 -81.1911)" class="st8" width="27.6" height="18.7"/>
					
						<rect x="310.7" y="202.3" transform="matrix(0.9604 0.2786 -0.2786 0.9604 71.0952 -81.2558)" class="st9" width="21.3" height="14.4"/>
					<circle class="st7" cx="214" cy="194.5" r="6.8"/>
					<path class="st3" d="M346,241c-5.1,15.6-15.8,52.2-20.9,69.3c-0.4,1.2-0.9,2.3-1.7,3.3c-2.3,2.9-6.3,4.3-10.1,3.2l-58-16.8
						l0-0.1l-29.4-8.5l0,0.1l-83.3-24.2c-4.4-1.3-7.2-5.4-6.9-9.8c0.1-0.7,0.2-1.3,0.4-2c4.9-17.2,15.4-53.9,19.5-69.7
						c1.1-4.1,5.3-6.5,9.4-5.3l24.1,7c3.1,0.9,5.7,3,7.3,5.8l5.6,10.1c1.7,3.1,2.1,6.7,1.1,10l-5.2,18c-1.2,4.1-1.7,8.2-1.7,12.2
						c0,16.6,9.5,32,24.6,39.3c2.2,1.1,4.5,2,6.9,2.7v0l29.4,8.5v0c1.6,0.5,3.2,0.8,4.8,1.1c21.6,3.7,43.1-9.3,49.4-30.9l5.2-18
						c1-3.4,3.3-6.2,6.3-7.9l10.1-5.6c2.6-1.4,5.7-1.9,8.6-1.2c-0.2-0.1-0.4-0.1-0.6-0.2l1.2,0.4c-0.2-0.1-0.4-0.1-0.6-0.1
						C345.3,233.1,347.3,237.2,346,241z"/>
					
						<rect x="250.3" y="182.1" transform="matrix(0.9604 0.2786 -0.2786 0.9604 61.9217 -64.7182)" class="st7" width="16.6" height="6.7"/>
					<circle class="st4" cx="226.2" cy="198.8" r="2.3"/>
				</g>
				<path class="st6" d="M299.2,99.4c-2.3,3.5-5.4,6.6-9.8,9.2c-21.6,12.7-34.2,7.3-47.9,0.3c-12.9-6.6-26.8-14.6-50.3-10.7
					c-9.1,1.5-16.7,3.6-23.1,6.2c7.5-9.9,21.2-18.5,45.8-21.3c21.8-2.4,35.4,4.3,47.5,10.2C273.2,99.1,283.7,104.3,299.2,99.4z"/>
				<path class="st3" d="M328.1,47.1c2.8-1.3,5.5-2.4,8.1-3.1c-10.9,16.1-4.5,38-24.1,49.4c-4.7,2.7-8.9,4.7-12.9,5.9
					C309.8,83.1,302.2,59.3,328.1,47.1z"/>
				<path class="st3" d="M418.5,120.4c-0.2,41.9-13.5,85.6-40.7,102.3c-0.7,0.4-1.6,0.6-2.4,0.6l-9.1-0.5c-2.3-0.1-4.1-2.1-4-4.4
					l0.4-8.4c0.1-1.2,0.7-2.4,1.6-3.1c30.6-24.8,39.5-79.7,29.2-119.3c-8-30.9-27.5-52.5-57.4-43.4c3.1-4.6,7.6-8.7,14.6-12
					C395.5,11,418.8,64,418.5,120.4z"/>
				<path class="st3" d="M178.5,94.4c-17.9,10.8-24.8,17.6-24.8,17.6l14.1-7.6C167.8,104.3,181.7,92.5,178.5,94.4z"/>
				<path class="st6" d="M261.3,93.2c-8.8,5.2-15.3,10.8-19.9,15.6c-12.9-6.6-26.8-14.6-50.3-10.7c-9.1,1.5-16.7,3.6-23.1,6.2
					c7.5-9.9,21.2-18.5,45.8-21.3C235.6,80.5,249.2,87.2,261.3,93.2z"/>
				<path class="st6" d="M316.3,90.4c0,0-12.6,13.6-32.6,21.1l9.4-10.6C293.1,100.9,304,98.9,316.3,90.4z"/>
				<path class="st3" d="M317.3,54.2c0,0,14-17.7,36.7-23.7c0,0-10.3,3.8-17.9,13.5L317.3,54.2z"/>
				<path class="st6" d="M418.5,120.4c-7.3-17.4-16.2-27.4-25-32.9c-8-30.9-27.5-52.5-57.4-43.4c3.1-4.6,7.6-8.7,14.6-12
					C395.5,11,418.8,64,418.5,120.4z"/>
				<path class="st4" d="M158.6,170.1L158.6,170.1c-0.8,0.4-1.7,0.1-2.1-0.7l-5.4-10.5c-0.4-0.8-0.1-1.7,0.7-2.1l0,0
					c0.8-0.4,1.7-0.1,2.1,0.7l5.4,10.5C159.7,168.8,159.4,169.7,158.6,170.1z"/>
				<path class="st4" d="M353.1,226.6L353.1,226.6c-0.5-0.7-0.3-1.7,0.5-2.2l10-6.3c0.7-0.5,1.7-0.3,2.2,0.5l0,0
					c0.5,0.7,0.3,1.7-0.5,2.2l-10,6.3C354.6,227.6,353.6,227.4,353.1,226.6z"/>
			</g>
			<path class="st6" d="M323.5,313.6c-2.3,2.9-6.3,4.3-10.1,3.2l-58-16.8l0-0.1l-29.4-8.5l0,0.1l-83.3-24.2
				c-4.4-1.3-7.2-5.4-6.9-9.8l84.9,25.4l41.1,12.3L323.5,313.6z"/>
		</g>
	</g>
</g>
</svg>
